<?xml version="1.0" encoding="UTF-8"?> <svg xmlns="http://www.w3.org/2000/svg" width="64" height="64" viewBox="0 0 64 64" fill="none"><g clip-path="url(#clip0_3295_2547)"><path d="M21.333 34.667V34.6937" stroke="white" stroke-width="2.17" stroke-linecap="round" stroke-linejoin="round"></path><path d="M32 45.333V45.3597" stroke="white" stroke-width="2.17" stroke-linecap="round" stroke-linejoin="round"></path><path d="M32 32V32.0267" stroke="white" stroke-width="2.17" stroke-linecap="round" stroke-linejoin="round"></path><path d="M42.667 37.333V37.3597" stroke="white" stroke-width="2.17" stroke-linecap="round" stroke-linejoin="round"></path><path d="M29.333 21.333V21.3597" stroke="white" stroke-width="2.17" stroke-linecap="round" stroke-linejoin="round"></path><path d="M35.0611 9.26906L42.1731 12.2131C40.7635 14.0675 39.9998 16.3324 39.9985 18.6617C39.9972 20.991 40.7584 23.2568 42.1658 25.1128C43.5733 26.9688 45.5496 28.3131 47.7928 28.9404C50.0361 29.5676 52.4231 29.4433 54.5891 28.5864L54.7304 28.9384C55.5423 30.8985 55.5423 33.1009 54.7304 35.0611C53.4051 37.1571 52.4957 38.8051 51.9997 39.9997C51.4957 41.2157 50.9091 43.1837 50.2397 45.9091C49.4272 47.8689 47.8694 49.4257 45.9091 50.2371C43.1144 50.9384 41.1437 51.5251 39.9997 51.9997C38.7331 52.5251 37.0877 53.4344 35.0611 54.7304C33.1009 55.5423 30.8985 55.5423 28.9384 54.7304C26.7997 53.3891 25.1544 52.4797 23.9997 51.9997C22.7437 51.4797 20.7731 50.8931 18.0904 50.2397C16.1306 49.4272 14.5737 47.8694 13.7624 45.9091C13.0557 43.1037 12.4691 41.1357 11.9997 39.9997C11.4717 38.7224 10.5597 37.0771 9.26906 35.0611C8.45719 33.1009 8.45719 30.8985 9.26906 28.9384C10.5491 26.9544 11.4557 25.3091 11.9997 23.9997C12.4557 22.8984 13.0424 20.9277 13.7597 18.0904C14.5723 16.1306 16.1301 14.5737 18.0904 13.7624C20.8424 13.0797 22.8104 12.4931 23.9997 11.9997C25.2211 11.4931 26.8664 10.5837 28.9384 9.26906C30.8985 8.45719 33.1009 8.45719 35.0611 9.26906Z" stroke="white" stroke-width="2.17" stroke-linecap="round" stroke-linejoin="round"></path></g><defs><clipPath id="clip0_3295_2547"><rect width="64" height="64" fill="white"></rect></clipPath></defs></svg> 