<?xml version="1.0" encoding="UTF-8"?> <svg xmlns="http://www.w3.org/2000/svg" width="64" height="64" viewBox="0 0 64 64" fill="none"><g clip-path="url(#clip0_3295_2561)"><path d="M32 56C45.2548 56 56 45.2548 56 32C56 18.7452 45.2548 8 32 8C18.7452 8 8 18.7452 8 32C8 45.2548 18.7452 56 32 56Z" stroke="white" stroke-width="2.17" stroke-linecap="round" stroke-linejoin="round"></path><path d="M16 14.1338C18.5097 16.3847 20.517 19.1391 21.8912 22.2175C23.2653 25.2959 23.9756 28.6293 23.9756 32.0005C23.9756 35.3717 23.2653 38.705 21.8912 41.7834C20.517 44.8619 18.5097 47.6162 16 49.8671" stroke="white" stroke-width="2.17" stroke-linecap="round" stroke-linejoin="round"></path><path d="M48 14.1338C45.4903 16.3847 43.483 19.1391 42.1088 22.2175C40.7346 25.2959 40.0244 28.6293 40.0244 32.0005C40.0244 35.3717 40.7346 38.705 42.1088 41.7834C43.483 44.8619 45.4903 47.6162 48 49.8671" stroke="white" stroke-width="2.17" stroke-linecap="round" stroke-linejoin="round"></path></g><defs><clipPath id="clip0_3295_2561"><rect width="64" height="64" fill="white"></rect></clipPath></defs></svg> 