<?xml version="1.0" encoding="UTF-8"?> <svg xmlns="http://www.w3.org/2000/svg" width="262" height="55" viewBox="0 0 262 55" fill="none"><path d="M63.5009 10.3862C67.1008 10.3862 69.8893 11.3919 71.8664 13.4032C73.9657 15.5071 75.1447 18.3578 75.1447 21.3299C75.1447 24.302 73.9657 27.1528 71.8664 29.2567C69.885 31.2381 67.0965 32.2373 63.5009 32.2544H59.4463V10.3862H63.5009ZM60.6825 11.6673V30.9861H63.4817C66.6247 30.9861 69.1057 30.1086 70.9248 28.3535C72.793 26.4845 73.8424 23.9501 73.8424 21.3075C73.8424 18.6649 72.793 16.1305 70.9248 14.2615C69.1057 12.5192 66.6247 11.6481 63.4817 11.6481L60.6825 11.6673Z" fill="white"></path><path d="M79.4246 14.4336C79.539 14.5439 79.6298 14.6762 79.6914 14.8227C79.7531 14.9691 79.7843 15.1266 79.7833 15.2855C79.7851 15.529 79.7147 15.7675 79.5809 15.9709C79.4471 16.1743 79.2559 16.3334 79.0316 16.4281C78.8073 16.5227 78.56 16.5487 78.3209 16.5027C78.0818 16.4566 77.8618 16.3407 77.6887 16.1695C77.5697 16.0556 77.4759 15.9181 77.413 15.766C77.3501 15.6138 77.3197 15.4501 77.3236 15.2855C77.3222 15.126 77.3539 14.9679 77.4167 14.8212C77.4796 14.6746 77.5722 14.5426 77.6887 14.4336C77.8038 14.319 77.9409 14.2287 78.0916 14.1682C78.2424 14.1077 78.4038 14.0781 78.5662 14.0813C78.7256 14.0796 78.8837 14.1099 79.0311 14.1704C79.1785 14.231 79.3123 14.3204 79.4246 14.4336V14.4336ZM79.1683 18.8277V32.2791H77.9449V18.8277H79.1683Z" fill="white"></path><path d="M95.3744 29.5952C95.1374 29.8835 94.894 30.1589 94.6314 30.4279C93.9372 31.1332 93.1102 31.6941 92.1983 32.0783C91.2863 32.4626 90.3073 32.6625 89.3177 32.6667C88.3281 32.6709 87.3475 32.4793 86.4323 32.1028C85.5171 31.7263 84.6855 31.1724 83.9853 30.4731C83.2851 29.7737 82.7302 28.9428 82.3526 28.028C81.9751 27.1133 81.7822 26.1329 81.7852 25.1433C81.7882 24.1537 81.987 23.1745 82.3701 22.262C82.7533 21.3496 83.3132 20.522 84.0176 19.8269C85.4286 18.4262 87.3362 17.6401 89.3245 17.6401C91.3127 17.6401 93.2203 18.4262 94.6314 19.8269C94.9103 20.112 95.1693 20.4159 95.4064 20.7365V18.8149H96.6427V29.2365C96.6562 30.198 96.4728 31.152 96.1038 32.0399C95.7347 32.9278 95.1879 33.7307 94.4969 34.3993C93.8004 35.0994 92.9725 35.655 92.0607 36.0341C91.1488 36.4132 90.1711 36.6084 89.1836 36.6084C88.196 36.6084 87.2183 36.4132 86.3064 36.0341C85.3946 35.655 84.5667 35.0994 83.8702 34.3993C83.5786 34.1101 83.3088 33.7997 83.0632 33.4705L84.3442 32.9901C84.4817 33.161 84.6316 33.3216 84.7926 33.4705C85.6314 34.3046 86.6911 34.8816 87.8469 35.1336C89.0027 35.3856 90.2064 35.302 91.3163 34.8928C92.4262 34.4836 93.396 33.7657 94.1116 32.8238C94.8271 31.8818 95.2586 30.755 95.3552 29.576L95.3744 29.5952ZM95.3744 23.8303C95.0742 22.4458 94.3108 21.2051 93.2103 20.3131C92.1098 19.421 90.7379 18.9309 89.3213 18.9238C88.0941 18.926 86.895 19.2916 85.8753 19.9745C84.8557 20.6574 84.0611 21.6269 83.5917 22.7609C83.1224 23.8948 82.9994 25.1423 83.2382 26.3461C83.477 27.5498 84.0669 28.6559 84.9335 29.5248C85.5095 30.1025 86.1939 30.5609 86.9474 30.8736C87.7009 31.1864 88.5087 31.3474 89.3245 31.3474C90.1403 31.3474 90.9481 31.1864 91.7016 30.8736C92.455 30.5609 93.1394 30.1025 93.7154 29.5248C94.5672 28.6854 95.1531 27.6139 95.4 26.4438L95.3744 23.8303Z" fill="white"></path><path d="M101.075 14.4338C101.192 14.5428 101.284 14.6748 101.347 14.8215C101.41 14.9681 101.442 15.1262 101.44 15.2857C101.44 15.6119 101.311 15.9247 101.08 16.1554C100.849 16.386 100.537 16.5156 100.21 16.5156C99.8842 16.5156 99.5714 16.386 99.3407 16.1554C99.1101 15.9247 98.9805 15.6119 98.9805 15.2857C98.9791 15.1262 99.0108 14.9681 99.0737 14.8215C99.1365 14.6748 99.2291 14.5428 99.3456 14.4338C99.5767 14.2077 99.8871 14.0811 100.21 14.0811C100.534 14.0811 100.844 14.2077 101.075 14.4338ZM100.819 18.828V32.2794H99.5698V18.828H100.819Z" fill="white"></path><path d="M105.892 18.8283V13.1211H107.116V18.8283H109.851V20.0646H107.116V32.2349H105.892V20.0646H103.157V18.8283H105.892Z" fill="white"></path><path d="M126.325 32.2544H125.089V29.5193C124.85 29.8384 124.591 30.1422 124.314 30.4288C123.624 31.1533 122.796 31.7324 121.878 32.1322C120.961 32.5319 119.973 32.7442 118.972 32.7566C117.971 32.769 116.978 32.5811 116.051 32.2042C115.124 31.8272 114.282 31.2688 113.574 30.5616C112.866 29.8544 112.307 29.0128 111.928 28.0862C111.55 27.1597 111.361 26.1669 111.373 25.1663C111.384 24.1656 111.595 23.1773 111.993 22.2594C112.392 21.3416 112.97 20.5126 113.694 19.8214C115.103 18.4141 117.013 17.6235 119.004 17.6235C120.995 17.6235 122.905 18.4141 124.314 19.8214C124.591 20.1081 124.85 20.4119 125.089 20.731V18.8094H126.325V32.2544ZM125.089 26.3486V23.9209C124.788 22.4308 123.944 21.1058 122.721 20.2029C121.498 19.3001 119.983 18.8839 118.471 19.0351C116.958 19.1864 115.555 19.8943 114.535 21.0215C113.515 22.1486 112.95 23.6146 112.95 25.1347C112.95 26.6549 113.515 28.1209 114.535 29.248C115.555 30.3752 116.958 31.0831 118.471 31.2343C119.983 31.3856 121.498 30.9694 122.721 30.0666C123.944 29.1637 124.788 27.8387 125.089 26.3486V26.3486Z" fill="white"></path><path d="M130.643 10.3862V32.2544H129.4V10.3862H130.643Z" fill="white"></path><path d="M152.864 10.3862V11.6225H143.166V20.699H152.864V21.9352H143.166V31.0182H152.864V32.2544H141.93V10.3862H152.864Z" fill="white"></path><path d="M168.966 29.5953C168.729 29.8836 168.479 30.159 168.223 30.428C167.527 31.1253 166.7 31.6788 165.79 32.0566C164.881 32.4345 163.905 32.6295 162.92 32.6304C161.934 32.6312 160.959 32.4381 160.048 32.0618C159.137 31.6856 158.31 31.1337 157.612 30.4376C156.915 29.7416 156.362 28.9149 155.984 28.005C155.606 27.0951 155.411 26.1196 155.41 25.1343C155.409 24.149 155.602 23.1732 155.979 22.2626C156.355 21.3519 156.907 20.5243 157.603 19.827C159.015 18.4259 160.924 17.6396 162.913 17.6396C164.902 17.6396 166.811 18.4259 168.223 19.827C168.502 20.112 168.761 20.4159 168.998 20.7366V18.8149H170.234V29.2366C170.256 30.2002 170.078 31.1579 169.712 32.0495C169.346 32.9412 168.8 33.7478 168.108 34.4186C167.423 35.1316 166.599 35.6959 165.686 36.0761C164.774 36.4563 163.793 36.6443 162.804 36.6285C161.813 36.642 160.83 36.453 159.915 36.073C158.999 35.693 158.171 35.13 157.481 34.4186C157.193 34.1277 156.926 33.8174 156.68 33.4898L157.962 33.0094C158.099 33.1803 158.249 33.3409 158.41 33.4898C159.249 34.3239 160.308 34.9009 161.464 35.1529C162.62 35.4048 163.824 35.3213 164.934 34.9121C166.044 34.5029 167.013 33.785 167.729 32.843C168.444 31.9011 168.876 30.7743 168.973 29.5953H168.966ZM168.966 23.8304C168.65 22.3426 167.793 21.0248 166.563 20.1309C165.332 19.2371 163.814 18.8305 162.301 18.9897C160.788 19.1488 159.388 19.8624 158.371 20.9928C157.353 22.1232 156.79 23.5904 156.79 25.1115C156.79 26.6326 157.353 28.0998 158.371 29.2302C159.388 30.3606 160.788 31.0742 162.301 31.2333C163.814 31.3925 165.332 30.9859 166.563 30.0921C167.793 29.1982 168.65 27.8803 168.966 26.3926V23.8304Z" fill="white"></path><path d="M185.717 29.5953C185.48 29.8835 185.23 30.159 184.974 30.428C183.568 31.8363 181.661 32.6285 179.671 32.6303C177.681 32.6321 175.772 31.8434 174.363 30.4376C172.955 29.0318 172.163 27.1242 172.161 25.1343C172.159 23.1444 172.948 21.2353 174.354 19.827C175.766 18.4259 177.675 17.6396 179.664 17.6396C181.653 17.6396 183.562 18.4259 184.974 19.827C185.251 20.1137 185.51 20.4175 185.749 20.7366V18.8149H186.985V29.2366C187.001 30.1989 186.818 31.154 186.447 32.0423C186.077 32.9306 185.527 33.733 184.833 34.3994C184.148 35.1124 183.324 35.6766 182.412 36.0569C181.499 36.4371 180.518 36.6251 179.529 36.6093C178.538 36.6228 177.555 36.4338 176.64 36.0538C175.725 35.6738 174.897 35.1108 174.207 34.3994C173.919 34.1085 173.651 33.7982 173.406 33.4706L174.687 32.9902C174.824 33.1611 174.974 33.3216 175.135 33.4706C175.974 34.3047 177.034 34.8817 178.19 35.1336C179.345 35.3856 180.549 35.3021 181.659 34.8929C182.769 34.4836 183.739 33.7658 184.454 32.8238C185.17 31.8819 185.601 30.7551 185.698 29.5761L185.717 29.5953ZM185.717 23.8304C185.401 22.3426 184.544 21.0248 183.314 20.1309C182.083 19.237 180.565 18.8305 179.052 18.9897C177.539 19.1488 176.139 19.8624 175.122 20.9928C174.104 22.1232 173.541 23.5904 173.541 25.1115C173.541 26.6326 174.104 28.0998 175.122 29.2302C176.139 30.3606 177.539 31.0742 179.052 31.2333C180.565 31.3925 182.083 30.9859 183.314 30.0921C184.544 29.1982 185.401 27.8803 185.717 26.3926V23.8304Z" fill="white"></path><path d="M189.554 10.3862H190.79V19.5268C191.822 18.5655 193.181 18.0311 194.592 18.0311C196.002 18.0311 197.361 18.5655 198.393 19.5268C198.885 20.0183 199.274 20.6028 199.538 21.246C199.802 21.8893 199.935 22.5787 199.931 23.274V32.2416H198.694V23.3893C198.701 22.8435 198.594 22.3023 198.381 21.7996C198.169 21.297 197.854 20.8437 197.458 20.4684C196.678 19.7013 195.628 19.2714 194.534 19.2714C193.44 19.2714 192.39 19.7013 191.61 20.4684C191.266 20.7878 190.988 21.1706 190.79 21.5958V32.2544H189.554V10.3862Z" fill="white"></path><path d="M203.536 24.4456C203.502 24.6746 203.485 24.9058 203.485 25.1374C203.487 26.3638 203.854 27.562 204.537 28.5803C205.22 29.5987 206.191 30.3915 207.325 30.8584C208.459 31.3253 209.706 31.4454 210.908 31.2036C212.111 30.9617 213.214 30.3687 214.08 29.4995C214.284 29.2945 214.483 29.0767 214.669 28.859L215.982 29.3201C215.699 29.7262 215.373 30.0999 215.008 30.4347C214.311 31.1316 213.484 31.6844 212.573 32.0616C211.663 32.4388 210.687 32.6329 209.701 32.6329C208.716 32.6329 207.74 32.4388 206.829 32.0616C205.919 31.6844 205.091 31.1316 204.394 30.4347C203.698 29.7378 203.145 28.9104 202.768 27.9999C202.39 27.0893 202.196 26.1134 202.196 25.1278C202.196 24.1422 202.39 23.1663 202.768 22.2557C203.145 21.3451 203.698 20.5178 204.394 19.8209C205.802 18.4139 207.711 17.6235 209.701 17.6235C211.692 17.6235 213.601 18.4139 215.008 19.8209C215.626 20.4207 216.115 21.1401 216.446 21.9353C216.776 22.7304 216.941 23.5846 216.93 24.4456H203.536ZM203.767 23.1645H215.553C215.274 22.2405 214.767 21.4014 214.08 20.724C213.504 20.1455 212.82 19.6865 212.066 19.3732C211.313 19.06 210.505 18.8987 209.689 18.8987C208.873 18.8987 208.065 19.06 207.311 19.3732C206.557 19.6865 205.873 20.1455 205.298 20.724C204.599 21.4134 204.075 22.2586 203.767 23.1901V23.1645Z" fill="white"></path><path d="M233.475 32.2538H232.239V29.5187C232.002 29.8393 231.743 30.1433 231.464 30.4283C230.768 31.1252 229.941 31.6781 229.03 32.0554C228.12 32.4328 227.145 32.6271 226.159 32.6274C225.174 32.6277 224.198 32.4339 223.288 32.0572C222.378 31.6804 221.55 31.128 220.853 30.4315C220.157 29.735 219.604 28.9081 219.226 27.9979C218.849 27.0877 218.655 26.1121 218.654 25.1268C218.654 24.1416 218.848 23.1659 219.225 22.2555C219.601 21.3451 220.154 20.5178 220.85 19.8209C222.258 18.4139 224.167 17.6235 226.157 17.6235C228.147 17.6235 230.056 18.4139 231.464 19.8209C231.743 20.1059 232.002 20.4098 232.239 20.7304V18.8088H233.475V32.2538ZM232.239 26.348V23.9204C232.021 22.7005 231.425 21.58 230.535 20.7176C229.815 19.9945 228.928 19.4602 227.952 19.1623C226.976 18.8643 225.941 18.8119 224.94 19.0096C223.939 19.2073 223.002 19.6491 222.213 20.2957C221.423 20.9423 220.805 21.7738 220.414 22.7164C220.023 23.659 219.871 24.6835 219.971 25.6991C220.071 26.7147 220.419 27.69 220.987 28.5384C221.554 29.3868 222.321 30.0821 223.222 30.5626C224.122 31.0431 225.127 31.294 226.148 31.293C226.965 31.305 227.776 31.1491 228.531 30.8351C229.285 30.5211 229.968 30.0557 230.535 29.4675C231.409 28.6268 232.004 27.5378 232.239 26.348V26.348Z" fill="white"></path><path d="M250.828 32.2544H249.592V29.5193C249.354 29.8399 249.096 30.1438 248.817 30.4289C247.41 31.8363 245.502 32.6274 243.512 32.628C241.522 32.6286 239.613 31.8387 238.206 30.4321C236.798 29.0254 236.007 27.1173 236.007 25.1274C236.006 23.1375 236.796 21.2289 238.203 19.8215C239.611 18.4145 241.519 17.6241 243.51 17.6241C245.5 17.6241 247.409 18.4145 248.817 19.8215C249.096 20.1065 249.354 20.4104 249.592 20.731V10.3862H250.828V32.2544ZM249.592 26.3486V23.9209C249.402 22.9706 248.993 22.0779 248.397 21.3141C247.801 20.5503 247.034 19.9367 246.158 19.5225C245.282 19.1082 244.321 18.9048 243.353 18.9284C242.384 18.9521 241.434 19.2023 240.58 19.6589C239.725 20.1154 238.989 20.7658 238.431 21.5578C237.873 22.3498 237.508 23.2615 237.365 24.2199C237.222 25.1783 237.306 26.1568 237.61 27.077C237.913 27.9972 238.428 28.8337 239.112 29.5193C239.911 30.3086 240.909 30.867 242 31.1354C243.09 31.4038 244.233 31.3722 245.307 31.0439C246.381 30.7157 247.347 30.103 248.101 29.2707C248.855 28.4385 249.37 27.4177 249.592 26.3166V26.3486Z" fill="white"></path><path d="M257.221 25.048C256.438 24.6609 255.71 24.1719 255.056 23.5939C254.593 23.1482 254.275 22.5737 254.143 21.945C254.011 21.3164 254.072 20.6626 254.316 20.0686C254.561 19.4746 254.978 18.9678 255.514 18.6141C256.051 18.2604 256.681 18.0762 257.323 18.0852C257.735 18.0759 258.144 18.1512 258.525 18.3066C258.906 18.462 259.252 18.694 259.539 18.9884C259.803 19.2351 260.014 19.5324 260.161 19.8626C260.307 20.1927 260.386 20.549 260.391 20.91V20.9741L259.322 21.4033C259.277 20.828 259.053 20.2811 258.681 19.8403C258.503 19.6654 258.292 19.5286 258.059 19.4383C257.827 19.348 257.579 19.3061 257.33 19.3151C256.802 19.3201 256.297 19.5325 255.924 19.9064C255.552 20.2803 255.341 20.7857 255.337 21.3136C255.334 21.5763 255.385 21.8369 255.486 22.0793C255.587 22.3216 255.737 22.5407 255.927 22.7228C256.369 23.1201 256.849 23.4721 257.362 23.7733C258.264 24.2196 259.103 24.7863 259.853 25.4579C260.234 25.8251 260.538 26.2646 260.748 26.7507C260.957 27.2367 261.067 27.7596 261.072 28.2888C261.078 28.818 260.977 29.3428 260.777 29.8328C260.577 30.3227 260.281 30.7679 259.907 31.1423C259.533 31.5167 259.088 31.8129 258.599 32.0135C258.109 32.2141 257.584 32.3151 257.055 32.3107C256.526 32.3063 256.003 32.1965 255.517 31.9877C255.03 31.7789 254.591 31.4753 254.223 31.0947C253.866 30.7687 253.579 30.3734 253.38 29.9329C253.18 29.4924 253.073 29.0159 253.063 28.5325L254.287 28.2187C254.278 28.5907 254.346 28.9606 254.486 29.3054C254.626 29.6502 254.835 29.9627 255.1 30.2236C255.349 30.4821 255.648 30.6874 255.978 30.8273C256.308 30.9671 256.663 31.0385 257.022 31.0371C257.758 31.032 258.461 30.7362 258.98 30.2142C259.498 29.6922 259.789 28.9864 259.789 28.2507C259.791 27.8914 259.719 27.5355 259.578 27.2051C259.437 26.8746 259.23 26.5765 258.969 26.3291C258.427 25.8493 257.842 25.4205 257.221 25.048V25.048Z" fill="white"></path><path d="M62.3565 43.9691C62.7625 44.1475 63.119 44.4219 63.3953 44.7687C63.6717 45.1155 63.8595 45.5243 63.9427 45.9599C64.0259 46.3955 64.002 46.8447 63.873 47.269C63.7439 47.6932 63.5137 48.0798 63.202 48.3952C62.7643 48.8317 62.1945 49.1109 61.5815 49.1895H58.8848V40.8624H61.3637C61.5893 40.8597 61.8131 40.9031 62.0214 40.9901C62.2296 41.0772 62.4177 41.2059 62.5743 41.3685C62.8919 41.6888 63.0701 42.1216 63.0701 42.5727C63.0701 43.0238 62.8919 43.4566 62.5743 43.7769C62.5069 43.8466 62.4341 43.9109 62.3565 43.9691ZM59.3524 41.3364V43.7577H61.4726C61.7936 43.7424 62.0955 43.6002 62.3117 43.3623C62.5279 43.1245 62.6408 42.8105 62.6255 42.4894C62.6103 42.1683 62.468 41.8665 62.2302 41.6503C61.9923 41.434 61.6783 41.3211 61.3573 41.3364H59.3524ZM61.274 48.7155C61.5664 48.7218 61.8571 48.6682 62.128 48.558C62.399 48.4479 62.6446 48.2835 62.8497 48.075C63.062 47.8658 63.2306 47.6165 63.3456 47.3416C63.4607 47.0667 63.5199 46.7716 63.5199 46.4736C63.5199 46.1756 63.4607 45.8805 63.3456 45.6056C63.2306 45.3307 63.062 45.0814 62.8497 44.8722C62.6453 44.6628 62.3998 44.4978 62.1287 44.3876C61.8576 44.2773 61.5666 44.2243 61.274 44.2317H59.3524V48.7155H61.274Z" fill="white"></path><path d="M69.3894 46.3143H67.8328V49.1967H67.3652V40.8696H69.5495C70.161 40.9472 70.7291 41.2267 71.1637 41.6639C71.6722 42.1742 71.9577 42.8652 71.9577 43.5855C71.9577 44.3059 71.6722 44.9969 71.1637 45.5072C70.8135 45.8645 70.3693 46.1154 69.8826 46.231L71.8042 49.1903H71.2277L69.3894 46.3143ZM67.8328 41.3564V45.8402H69.2484C69.843 45.8402 70.4133 45.6041 70.8337 45.1836C71.2541 44.7632 71.4903 44.1929 71.4903 43.5983C71.4903 43.0038 71.2541 42.4335 70.8337 42.0131C70.4133 41.5926 69.843 41.3564 69.2484 41.3564H67.8328Z" fill="white"></path><path d="M78.2801 40.876L81.297 49.2031H80.8038L79.4779 45.5456H76.6018L75.2311 49.1967H74.7314L77.7804 40.8696L78.2801 40.876ZM79.3049 45.0716L78.0238 41.587L76.7428 45.0716H79.3049Z" fill="white"></path><path d="M84.911 40.8755V49.2026H84.4434V40.8755H84.911Z" fill="white"></path><path d="M89.2719 40.8755L94.7998 48.6197V40.8755H95.2738V49.2026H94.55L89.1502 41.6377V49.2026H88.6826V40.8755H89.2719Z" fill="white"></path><path d="M101.231 44.61C100.709 44.4506 100.229 44.1746 99.8286 43.803C99.6596 43.6363 99.5268 43.4364 99.4386 43.2159C99.3504 42.9955 99.3088 42.7592 99.3162 42.5219C99.3179 42.0558 99.5042 41.6094 99.8344 41.2804C100.165 40.9515 100.612 40.7668 101.078 40.7668C101.315 40.7602 101.552 40.8028 101.773 40.8921C101.993 40.9814 102.193 41.1154 102.359 41.2856C102.542 41.462 102.676 41.6826 102.75 41.9262L102.327 42.0927C102.258 41.917 102.153 41.7577 102.019 41.6251C101.901 41.504 101.76 41.4085 101.603 41.3446C101.447 41.2807 101.279 41.2497 101.11 41.2536C100.77 41.2536 100.444 41.3886 100.204 41.6288C99.9636 41.8691 99.8286 42.1949 99.8286 42.5347C99.8268 42.7059 99.8593 42.8757 99.9242 43.0341C99.9891 43.1926 100.085 43.3364 100.207 43.4571C100.493 43.7241 100.822 43.9407 101.18 44.0976C101.815 44.2915 102.393 44.6366 102.865 45.1033C103.097 45.3278 103.281 45.5978 103.404 45.8964C103.528 46.1951 103.588 46.516 103.582 46.8391C103.585 47.3273 103.443 47.8053 103.172 48.212C102.902 48.6186 102.517 48.9354 102.066 49.1218C101.614 49.3082 101.118 49.3558 100.64 49.2584C100.161 49.1609 99.7227 48.923 99.3803 48.575C99.0086 48.2171 98.7655 47.7465 98.6885 47.2363L99.1305 47.0761C99.1734 47.5259 99.3783 47.9447 99.7069 48.2547C99.8922 48.4418 100.113 48.5903 100.356 48.6917C100.599 48.793 100.859 48.8452 101.123 48.8452C101.386 48.8452 101.646 48.793 101.889 48.6917C102.132 48.5903 102.353 48.4418 102.538 48.2547C102.725 48.0695 102.874 47.849 102.975 47.6061C103.076 47.3631 103.129 47.1024 103.129 46.8391C103.129 46.5759 103.076 46.3152 102.975 46.0722C102.874 45.8293 102.725 45.6088 102.538 45.4235C102.164 45.064 101.719 44.7868 101.231 44.61V44.61Z" fill="white"></path><path d="M119.185 48.1589C118.812 48.5266 118.37 48.8162 117.884 49.0109C117.398 49.2056 116.878 49.3013 116.354 49.2927C115.661 49.2942 114.979 49.1268 114.365 48.8049C113.752 48.483 113.226 48.0163 112.834 47.4454C112.442 46.8744 112.194 46.2164 112.114 45.5283C112.033 44.8403 112.122 44.1429 112.372 43.4968C112.621 42.8507 113.025 42.2752 113.548 41.8204C114.07 41.3655 114.696 41.0449 115.37 40.8864C116.044 40.7279 116.747 40.7363 117.418 40.9108C118.088 41.0854 118.706 41.4208 119.217 41.888L118.859 42.2082C118.32 41.7289 117.656 41.4135 116.944 41.2994C116.232 41.1853 115.502 41.2772 114.841 41.5642C114.18 41.8513 113.614 42.3215 113.212 42.9194C112.809 43.5173 112.585 44.2179 112.568 44.9386C112.55 45.6594 112.739 46.3701 113.112 46.987C113.485 47.6038 114.027 48.1011 114.674 48.4201C115.32 48.7391 116.044 48.8665 116.761 48.7873C117.477 48.7081 118.156 48.4256 118.718 47.9731V45.411H119.185V48.1589Z" fill="white"></path><path d="M124.746 46.3143H123.189V49.1967H122.722V40.8696H124.906C125.517 40.9472 126.086 41.2267 126.52 41.6639C127.029 42.1742 127.314 42.8652 127.314 43.5855C127.314 44.3059 127.029 44.9969 126.52 45.5072C126.169 45.8631 125.725 46.1138 125.239 46.231L127.161 49.1903H126.584L124.746 46.3143ZM123.189 41.3564V45.8402H124.605C125.199 45.8402 125.77 45.6041 126.19 45.1836C126.611 44.7632 126.847 44.1929 126.847 43.5983C126.847 43.0038 126.611 42.4335 126.19 42.0131C125.77 41.5926 125.199 41.3564 124.605 41.3564H123.189Z" fill="white"></path><path d="M137.755 42.0093C138.444 42.7132 138.867 43.6339 138.953 44.6148C139.039 45.5957 138.783 46.5762 138.228 47.3894C137.673 48.2026 136.853 48.7984 135.908 49.0754C134.963 49.3523 133.951 49.2933 133.045 48.9085C132.139 48.5236 131.394 47.8366 130.937 46.9644C130.48 46.0922 130.339 45.0886 130.539 44.1244C130.738 43.1601 131.266 42.2948 132.031 41.6756C132.797 41.0564 133.753 40.7216 134.738 40.7282C135.302 40.7235 135.861 40.8348 136.38 41.0551C136.899 41.2755 137.367 41.6003 137.755 42.0093V42.0093ZM134.738 41.2406C133.863 41.2424 133.015 41.5476 132.339 42.1042C131.663 42.6609 131.201 43.4346 131.032 44.2935C130.862 45.1525 130.996 46.0437 131.41 46.8153C131.823 47.5869 132.492 48.1912 133.301 48.5253C134.11 48.8594 135.01 48.9027 135.848 48.6478C136.686 48.3929 137.409 47.8555 137.895 47.1272C138.381 46.3989 138.599 45.5247 138.513 44.6534C138.427 43.7821 138.041 42.9677 137.422 42.3487C137.074 41.99 136.657 41.7065 136.195 41.5159C135.733 41.3252 135.237 41.2315 134.738 41.2406V41.2406Z" fill="white"></path><path d="M146.627 43.0854L148.696 48.4339L150.727 40.8755H151.201L148.965 49.2026H148.498L146.493 43.9693L144.488 49.2282H144.014L141.778 40.9011H142.259L144.289 48.4595L146.333 43.0854H146.627Z" fill="white"></path><path d="M154.793 40.8755V49.2026H154.325V40.8755H154.793Z" fill="white"></path><path d="M159.144 40.8755L164.671 48.6197V40.8755H165.139V49.2026H164.422L159.022 41.6377V49.2026H158.548V40.8755H159.144Z" fill="white"></path><path d="M175.726 48.1589C175.353 48.526 174.911 48.8152 174.424 49.0099C173.938 49.2045 173.419 49.3006 172.895 49.2927C172.202 49.2942 171.52 49.1268 170.906 48.8049C170.293 48.483 169.767 48.0163 169.375 47.4454C168.983 46.8744 168.735 46.2164 168.655 45.5283C168.574 44.8403 168.663 44.1429 168.913 43.4968C169.162 42.8507 169.566 42.2752 170.089 41.8204C170.611 41.3655 171.237 41.0449 171.911 40.8864C172.585 40.7279 173.288 40.7363 173.959 40.9108C174.629 41.0854 175.247 41.4208 175.758 41.888L175.4 42.2082C174.861 41.7289 174.197 41.4135 173.485 41.2994C172.773 41.1853 172.043 41.2772 171.382 41.5642C170.721 41.8513 170.155 42.3215 169.753 42.9194C169.35 43.5173 169.126 44.2179 169.109 44.9386C169.091 45.6594 169.28 46.3701 169.653 46.987C170.026 47.6038 170.568 48.1011 171.215 48.4201C171.861 48.7391 172.585 48.8665 173.302 48.7873C174.019 48.7081 174.697 48.4256 175.259 47.9731V45.411H175.726V48.1589Z" fill="white"></path><path d="M188.133 43.9694C188.54 44.1473 188.897 44.4217 189.174 44.7687C189.45 45.1158 189.638 45.5251 189.721 45.9611C189.803 46.3972 189.778 46.8468 189.648 47.271C189.518 47.6952 189.286 48.0812 188.973 48.3956C188.538 48.8327 187.97 49.1123 187.358 49.1899H184.655V40.8628H187.141C187.477 40.8648 187.806 40.9662 188.085 41.1542C188.365 41.3423 188.582 41.6087 188.711 41.9199C188.84 42.2312 188.874 42.5735 188.808 42.9039C188.743 43.2343 188.582 43.5381 188.345 43.7773C188.279 43.8467 188.209 43.911 188.133 43.9694V43.9694ZM185.129 41.3368V43.7581H187.243C187.526 43.7482 187.797 43.642 188.012 43.457C188.127 43.3421 188.217 43.2051 188.278 43.0542C188.338 42.9034 188.368 42.7419 188.364 42.5795C188.365 42.4171 188.334 42.2562 188.272 42.1059C188.211 41.9556 188.121 41.8188 188.006 41.7034C187.892 41.588 187.756 41.4962 187.607 41.4333C187.457 41.3704 187.297 41.3376 187.134 41.3368H185.129ZM187.051 48.7159C187.343 48.7221 187.634 48.6685 187.905 48.5584C188.176 48.4482 188.422 48.2839 188.627 48.0753C188.839 47.8661 189.007 47.6168 189.123 47.3419C189.238 47.067 189.297 46.772 189.297 46.474C189.297 46.1759 189.238 45.8809 189.123 45.606C189.007 45.3311 188.839 45.0818 188.627 44.8726C188.422 44.6631 188.177 44.4981 187.906 44.3879C187.634 44.2777 187.344 44.2246 187.051 44.2321H185.129V48.7159H187.051Z" fill="white"></path><path d="M198.094 40.8755H198.568V46.8518C198.489 47.4648 198.21 48.0347 197.774 48.4723C197.395 48.8536 196.911 49.1135 196.384 49.219C195.857 49.3245 195.31 49.2708 194.814 49.0648C194.317 48.8588 193.893 48.5097 193.596 48.062C193.298 47.6144 193.14 47.0883 193.143 46.5507V40.8755H193.61V46.5315C193.61 47.1261 193.846 47.6963 194.267 48.1168C194.687 48.5372 195.258 48.7734 195.852 48.7734C196.447 48.7734 197.017 48.5372 197.437 48.1168C197.858 47.6963 198.094 47.1261 198.094 46.5315V40.8755Z" fill="white"></path><path d="M204.545 44.6099C204.022 44.4505 203.543 44.1745 203.142 43.8029C202.973 43.6362 202.84 43.4363 202.752 43.2158C202.664 42.9954 202.622 42.7591 202.63 42.5218C202.631 42.0557 202.818 41.6093 203.148 41.2803C203.478 40.9514 203.925 40.7667 204.391 40.7667C204.624 40.7644 204.854 40.8093 205.069 40.8984C205.283 40.9876 205.478 41.1193 205.64 41.2855C205.823 41.4619 205.958 41.6825 206.031 41.9261L205.608 42.0926C205.54 41.9184 205.437 41.7595 205.307 41.625C205.129 41.437 204.898 41.3076 204.644 41.2538C204.391 41.1999 204.127 41.2242 203.887 41.3234C203.648 41.4226 203.444 41.5921 203.303 41.8095C203.162 42.0269 203.09 42.2819 203.097 42.541C203.095 42.7122 203.128 42.882 203.193 43.0404C203.258 43.1989 203.354 43.3427 203.475 43.4634C203.761 43.7304 204.09 43.947 204.449 44.1039C205.083 44.2978 205.662 44.6429 206.133 45.1096C206.366 45.3341 206.55 45.6041 206.673 45.9027C206.796 46.2014 206.857 46.5223 206.851 46.8454C206.855 47.1698 206.793 47.4917 206.669 47.7913C206.544 48.0909 206.36 48.3619 206.127 48.5877C205.806 48.9064 205.403 49.1307 204.963 49.2359C204.523 49.3412 204.063 49.3234 203.633 49.1845C203.202 49.0456 202.818 48.791 202.522 48.4485C202.227 48.106 202.031 47.6888 201.957 47.2426L202.399 47.0824C202.442 47.5322 202.647 47.951 202.975 48.261C203.161 48.4481 203.381 48.5966 203.624 48.698C203.867 48.7994 204.128 48.8515 204.391 48.8515C204.654 48.8515 204.915 48.7994 205.158 48.698C205.401 48.5966 205.621 48.4481 205.807 48.261C205.994 48.0758 206.142 47.8553 206.244 47.6124C206.345 47.3694 206.397 47.1087 206.397 46.8454C206.397 46.5822 206.345 46.3215 206.244 46.0785C206.142 45.8356 205.994 45.6151 205.807 45.4298C205.447 45.0732 205.017 44.7941 204.545 44.6099V44.6099Z" fill="white"></path><path d="M210.77 40.8755V49.2026H210.296V40.8755H210.77Z" fill="white"></path><path d="M215.132 40.8755L220.635 48.6197V40.8755H221.109V49.2026H220.385L214.985 41.6377V49.2026H214.518V40.8755H215.132Z" fill="white"></path><path d="M228.994 40.8757V41.3497H225.305V44.8023H228.994V45.2506H225.305V48.7032H228.994V49.1772H224.837V40.8501L228.994 40.8757Z" fill="white"></path><path d="M234.971 44.6099C234.448 44.4505 233.968 44.1745 233.568 43.8029C233.399 43.6362 233.266 43.4363 233.178 43.2158C233.089 42.9954 233.048 42.7591 233.055 42.5218C233.057 42.0557 233.243 41.6093 233.573 41.2803C233.904 40.9514 234.351 40.7667 234.817 40.7667C235.049 40.7644 235.28 40.8093 235.494 40.8984C235.709 40.9876 235.903 41.1193 236.066 41.2855C236.249 41.4619 236.384 41.6825 236.457 41.9261L236.034 42.0926C235.965 41.9169 235.86 41.7576 235.726 41.625C235.608 41.5039 235.467 41.4084 235.31 41.3445C235.154 41.2806 234.986 41.2496 234.817 41.2535C234.477 41.2535 234.151 41.3885 233.911 41.6287C233.671 41.869 233.536 42.1948 233.536 42.5346C233.534 42.7058 233.566 42.8756 233.631 43.034C233.696 43.1925 233.792 43.3363 233.914 43.457C234.2 43.724 234.529 43.9406 234.887 44.0975C235.522 44.2914 236.1 44.6365 236.572 45.1032C236.804 45.3277 236.988 45.5977 237.111 45.8963C237.235 46.195 237.295 46.5159 237.289 46.839C237.292 47.3272 237.15 47.8052 236.879 48.2119C236.609 48.6185 236.224 48.9353 235.773 49.1217C235.322 49.3081 234.825 49.3557 234.347 49.2583C233.868 49.1608 233.43 48.9229 233.087 48.5749C232.716 48.217 232.472 47.7464 232.396 47.2362L232.837 47.076C232.88 47.5258 233.085 47.9446 233.414 48.2546C233.599 48.4417 233.82 48.5902 234.063 48.6916C234.306 48.7929 234.566 48.8451 234.83 48.8451C235.093 48.8451 235.354 48.7929 235.596 48.6916C235.839 48.5902 236.06 48.4417 236.245 48.2546C236.432 48.0694 236.581 47.8489 236.682 47.606C236.783 47.363 236.836 47.1023 236.836 46.839C236.836 46.5758 236.783 46.3151 236.682 46.0721C236.581 45.8292 236.432 45.6087 236.245 45.4234C235.881 45.0676 235.447 44.7907 234.971 44.6099V44.6099Z" fill="white"></path><path d="M242.919 44.61C242.395 44.4535 241.915 44.1772 241.516 43.8029C241.345 43.6375 241.21 43.438 241.121 43.2173C241.032 42.9967 240.989 42.7598 240.997 42.5218C241.002 42.0557 241.191 41.6103 241.521 41.2818C241.852 40.9534 242.299 40.7684 242.765 40.7667C242.997 40.7639 243.226 40.8084 243.44 40.8977C243.654 40.9869 243.847 41.1189 244.008 41.2856C244.193 41.4618 244.329 41.6823 244.405 41.9261L243.982 42.0927C243.914 41.917 243.809 41.7576 243.675 41.6251C243.557 41.5039 243.415 41.4084 243.259 41.3445C243.102 41.2806 242.934 41.2496 242.765 41.2535C242.506 41.2466 242.251 41.3185 242.034 41.4595C241.816 41.6006 241.647 41.8043 241.548 42.0436C241.448 42.283 241.424 42.5469 241.478 42.8004C241.532 43.0538 241.661 43.285 241.849 43.4634C242.134 43.7319 242.463 43.9486 242.823 44.104C243.457 44.2979 244.036 44.643 244.507 45.1096C244.741 45.3372 244.927 45.6089 245.054 45.909C245.182 46.209 245.248 46.5315 245.25 46.8575C245.252 47.1835 245.189 47.5066 245.064 47.808C244.94 48.1094 244.757 48.3831 244.526 48.6132C244.295 48.8433 244.021 49.0252 243.719 49.1483C243.417 49.2714 243.094 49.3333 242.768 49.3304C242.442 49.3274 242.12 49.2596 241.82 49.1311C241.521 49.0025 241.25 48.8156 241.023 48.5814C240.649 48.2252 240.405 47.7538 240.331 47.2426L240.773 47.0825C240.816 47.5322 241.021 47.9511 241.35 48.2611C241.531 48.4639 241.753 48.6275 242 48.7418C242.247 48.8562 242.515 48.919 242.788 48.9264C243.06 48.9338 243.331 48.8856 243.584 48.7847C243.837 48.6839 244.067 48.5325 244.26 48.3399C244.452 48.1473 244.604 47.9174 244.704 47.6643C244.805 47.4112 244.853 47.1403 244.846 46.868C244.839 46.5956 244.776 46.3277 244.661 46.0804C244.547 45.8332 244.384 45.6118 244.181 45.4299C243.818 45.0761 243.389 44.7975 242.919 44.61V44.61Z" fill="white"></path><path d="M252.771 40.8757V41.3497H249.082V44.8023H252.771V45.2506H249.082V48.7032H252.771V49.1772H248.614V40.8501L252.771 40.8757Z" fill="white"></path><path d="M258.748 44.6099C258.225 44.4505 257.746 44.1745 257.345 43.8029C257.176 43.6362 257.043 43.4363 256.955 43.2158C256.867 42.9954 256.825 42.7591 256.833 42.5218C256.834 42.0557 257.021 41.6093 257.351 41.2803C257.681 40.9514 258.128 40.7667 258.594 40.7667C258.827 40.7644 259.057 40.8093 259.272 40.8984C259.486 40.9876 259.681 41.1193 259.843 41.2855C260.026 41.4619 260.161 41.6825 260.234 41.9261L259.811 42.0926C259.745 41.9172 259.642 41.7578 259.51 41.625C259.332 41.437 259.101 41.3076 258.847 41.2538C258.594 41.1999 258.33 41.2242 258.09 41.3234C257.851 41.4226 257.647 41.5921 257.506 41.8095C257.365 42.0269 257.293 42.2819 257.3 42.541C257.298 42.7122 257.331 42.882 257.396 43.0404C257.461 43.1989 257.557 43.3427 257.678 43.4634C257.964 43.7304 258.293 43.947 258.652 44.1039C259.289 44.2904 259.872 44.6289 260.349 45.0904C260.582 45.3148 260.765 45.5849 260.889 45.8835C261.012 46.1822 261.073 46.5031 261.067 46.8262C261.071 47.1506 261.009 47.4725 260.884 47.7721C260.76 48.0716 260.576 48.3427 260.343 48.5685C260.022 48.8872 259.619 49.1114 259.179 49.2167C258.739 49.322 258.279 49.3042 257.848 49.1653C257.418 49.0264 257.034 48.7718 256.738 48.4293C256.443 48.0868 256.247 47.6696 256.173 47.2234L256.615 47.0632C256.658 47.513 256.863 47.9318 257.191 48.2418C257.377 48.4289 257.597 48.5774 257.84 48.6788C258.083 48.7801 258.344 48.8323 258.607 48.8323C258.87 48.8323 259.131 48.7801 259.374 48.6788C259.617 48.5774 259.837 48.4289 260.023 48.2418C260.21 48.0566 260.358 47.8361 260.459 47.5931C260.561 47.3502 260.613 47.0895 260.613 46.8262C260.613 46.563 260.561 46.3023 260.459 46.0593C260.358 45.8163 260.21 45.5959 260.023 45.4106C259.657 45.0594 259.223 44.7869 258.748 44.6099V44.6099Z" fill="white"></path><path d="M27.3443 55.0003C35.9585 55.0003 42.9416 54.1199 42.9416 53.0339C42.9416 51.9478 35.9585 51.0674 27.3443 51.0674C18.7302 51.0674 11.7471 51.9478 11.7471 53.0339C11.7471 54.1199 18.7302 55.0003 27.3443 55.0003Z" fill="#EF5922"></path><path d="M42.8188 23.184C42.7675 23.9207 42.7099 24.6573 42.6522 25.4003C42.2679 30.4862 41.3712 35.4376 38.809 39.9471C36.9642 43.1498 34.5301 45.8593 31.1224 47.4799C26.2543 49.7858 21.6296 49.0941 17.5173 45.7696C12.9182 42.0481 10.7083 37.1223 11.1759 31.1908C11.2701 30.6862 11.204 30.1647 10.9869 29.6995C10.7698 29.2342 10.4125 28.8486 9.96527 28.5966C8.19096 27.4244 6.44868 26.2074 4.67437 25.0416C4.26967 24.8115 3.83981 24.6288 3.39328 24.4971C1.95206 23.9783 1.27948 24.1833 0.299451 25.3939C0.23135 25.4992 0.169329 25.6082 0.113692 25.7206C-0.0248115 25.3496 -0.0371152 24.9433 0.078687 24.5646C0.194489 24.186 0.431933 23.8561 0.754237 23.626C1.23441 23.2762 1.78759 23.0397 2.37224 22.9344C2.95689 22.829 3.55781 22.8574 4.12991 23.0175C6.69208 23.5363 8.92118 24.7918 11.1182 26.1305C11.4705 26.3419 11.8228 26.5661 12.1944 26.7711C12.6427 26.0473 13.0335 25.3363 13.4754 24.6829C14.9528 22.4272 17.2501 20.8352 19.8809 20.2439C22.1967 19.7876 24.599 20.2627 26.5668 21.5662C28.5345 22.8696 29.9091 24.8963 30.3922 27.2067C30.8342 29.5254 30.6805 31.7801 29.156 33.721C27.7212 35.5401 25.7098 36.2191 23.4808 36.2832C21.6319 36.3573 19.7943 35.9629 18.1386 35.1366C18.0041 35.0725 17.8632 35.0213 17.6646 34.9444C17.6478 35.057 17.6478 35.1714 17.6646 35.2839C18.5391 37.6989 20.2082 39.7452 22.3982 41.0872C23.2961 41.676 24.352 41.9772 25.4254 41.9509C26.4987 41.9246 27.5386 41.5719 28.4065 40.9399C30.7573 39.3834 32.1601 37.0967 33.1209 34.5345C34.0356 31.8824 34.5642 29.1125 34.6903 26.3099C35.1515 20.1607 33.6078 14.3637 31.763 8.59883C31.1224 6.60674 30.642 4.557 30.1552 2.52007C30.0734 2.00292 30.104 1.47422 30.2449 0.969949C30.2757 0.690133 30.4136 0.4331 30.6297 0.25277C30.8459 0.0724405 31.1235 -0.0171738 31.4043 0.00272635C32.2064 0.0368045 32.9978 0.19899 33.7487 0.483135C35.8497 1.45036 37.2973 3.16061 38.5592 5.04381C40.3655 7.7405 41.2046 10.8087 41.8516 13.9154C42.3785 16.4037 42.6638 18.937 42.7035 21.4802C42.7213 21.6502 42.7578 21.8178 42.8124 21.9798L42.8188 23.184ZM26.0429 29.7176C25.9789 29.314 25.9469 28.8977 25.8444 28.4941C25.0821 25.5284 21.8602 24.305 19.5926 26.1498C18.4274 27.0984 17.6151 28.4115 17.2867 29.8777C17.28 30.0088 17.3031 30.1396 17.3541 30.2605C17.4051 30.3814 17.4828 30.4892 17.5813 30.5759C18.3676 31.2517 19.2871 31.7549 20.2801 32.0528C21.2732 32.3507 22.3178 32.4368 23.3462 32.3054C24.8771 32.126 26.1326 31.3702 26.0429 29.7176Z" fill="#EF5922"></path></svg> 