<?xml version="1.0" encoding="UTF-8"?> <svg xmlns="http://www.w3.org/2000/svg" width="1097" height="62" viewBox="0 0 1097 62" fill="none"><line y1="35.5" x2="500" y2="35.5" stroke="#BDBDBD"></line><line x1="597" y1="35.5" x2="1097" y2="35.5" stroke="#BDBDBD"></line><path d="M555.421 61.9699C565.319 61.9699 573.344 60.9779 573.344 59.7542C573.344 58.5306 565.319 57.5386 555.421 57.5386C545.522 57.5386 537.498 58.5306 537.498 59.7542C537.498 60.9779 545.522 61.9699 555.421 61.9699Z" fill="#EF5922"></path><path d="M573.203 26.122C573.144 26.952 573.078 27.782 573.012 28.6192C572.57 34.3496 571.54 39.9285 568.595 45.0094C566.476 48.618 563.679 51.6709 559.763 53.4968C554.169 56.095 548.855 55.3155 544.129 51.5698C538.844 47.3766 536.305 41.8266 536.842 35.1435C536.95 34.5749 536.874 33.9873 536.625 33.4631C536.376 32.939 535.965 32.5045 535.451 32.2206C533.412 30.8998 531.41 29.5285 529.371 28.215C528.906 27.9558 528.412 27.7499 527.899 27.6016C526.243 27.017 525.47 27.2479 524.344 28.612C524.266 28.7306 524.195 28.8535 524.131 28.98C523.971 28.5621 523.957 28.1043 524.09 27.6776C524.223 27.251 524.496 26.8792 524.867 26.62C525.418 26.2259 526.054 25.9595 526.726 25.8407C527.398 25.722 528.088 25.754 528.746 25.9344C531.69 26.519 534.251 27.9336 536.776 29.4419C537.181 29.6801 537.586 29.9327 538.013 30.1637C538.528 29.3481 538.977 28.547 539.485 27.8109C541.182 25.2693 543.822 23.4755 546.845 22.8094C549.506 22.2952 552.267 22.8305 554.528 24.2992C556.789 25.7678 558.369 28.0513 558.924 30.6544C559.432 33.2671 559.255 35.8075 557.503 37.9943C555.854 40.044 553.543 40.809 550.982 40.8812C548.857 40.9647 546.746 40.5203 544.843 39.5893C544.689 39.5171 544.527 39.4594 544.298 39.3728C544.279 39.4996 544.279 39.6285 544.298 39.7553C545.303 42.4764 547.221 44.7819 549.738 46.2941C550.77 46.9574 551.983 47.2968 553.216 47.2672C554.45 47.2375 555.645 46.8402 556.642 46.1281C559.343 44.3743 560.955 41.7978 562.059 38.9109C563.11 35.9227 563.718 32.8018 563.863 29.644C564.393 22.7155 562.619 16.184 560.499 9.68852C559.763 7.44398 559.211 5.13449 558.651 2.83942C558.557 2.25674 558.593 1.66104 558.754 1.09287C558.79 0.777591 558.948 0.487985 559.197 0.284803C559.445 0.0816205 559.764 -0.0193502 560.087 0.00307184C561.008 0.0414686 561.918 0.224208 562.781 0.54436C565.195 1.63415 566.858 3.56114 568.308 5.68299C570.384 8.72142 571.348 12.1785 572.092 15.6788C572.697 18.4824 573.025 21.3368 573.071 24.2023C573.091 24.3939 573.133 24.5826 573.196 24.7652L573.203 26.122ZM553.926 33.4836C553.852 33.0289 553.816 32.5598 553.698 32.1051C552.822 28.7635 549.12 27.385 546.514 29.4636C545.175 30.5324 544.242 32.0119 543.864 33.664C543.857 33.8117 543.883 33.9591 543.942 34.0953C544 34.2315 544.09 34.353 544.203 34.4507C545.106 35.2121 546.163 35.779 547.304 36.1147C548.445 36.4504 549.645 36.5473 550.827 36.3993C552.586 36.1972 554.029 35.3456 553.926 33.4836Z" fill="#EF5922"></path></svg> 