<?xml version="1.0" encoding="UTF-8"?> <svg xmlns="http://www.w3.org/2000/svg" width="25" height="24" viewBox="0 0 25 24" fill="none"><g clip-path="url(#clip0_3278_2545)"><path d="M12.9912 20L9.99121 17H7.99121C7.19556 17 6.4325 16.6839 5.86989 16.1213C5.30728 15.5587 4.99121 14.7956 4.99121 14V8C4.99121 7.20435 5.30728 6.44129 5.86989 5.87868C6.4325 5.31607 7.19556 5 7.99121 5H17.9912C18.7869 5 19.5499 5.31607 20.1125 5.87868C20.6751 6.44129 20.9912 7.20435 20.9912 8V14C20.9912 14.7956 20.6751 15.5587 20.1125 16.1213C19.5499 16.6839 18.7869 17 17.9912 17H15.9912L12.9912 20Z" stroke="white" stroke-linecap="round" stroke-linejoin="round"></path><path d="M8.99121 9H16.9912" stroke="white" stroke-linecap="round" stroke-linejoin="round"></path><path d="M8.99121 13H14.9912" stroke="white" stroke-linecap="round" stroke-linejoin="round"></path></g><defs><clipPath id="clip0_3278_2545"><rect width="24" height="24" fill="white" transform="translate(0.991211)"></rect></clipPath></defs></svg> 