<?xml version="1.0" encoding="UTF-8"?> <svg xmlns="http://www.w3.org/2000/svg" width="64" height="64" viewBox="0 0 64 64" fill="none"><g clip-path="url(#clip0_3295_2541)"><path d="M36.3203 22.3524L41.563 17.1071C40.9427 16.487 40.485 15.7236 40.2302 14.8843C39.9755 14.0451 39.9317 13.156 40.1026 12.2958C40.2735 11.4356 40.654 10.6308 41.2102 9.95269C41.7665 9.27461 42.4814 8.74418 43.2916 8.40838C44.1018 8.07257 44.9823 7.94175 45.8552 8.02751C46.728 8.11327 47.5662 8.41296 48.2956 8.90004C49.0249 9.38711 49.6229 10.0465 50.0365 10.8199C50.4502 11.5933 50.6667 12.4567 50.667 13.3338C51.5442 13.3331 52.4081 13.5489 53.1821 13.962C53.956 14.3751 54.6161 14.9727 55.1038 15.7018C55.5916 16.431 55.8919 17.2693 55.9782 18.1423C56.0646 19.0153 55.9342 19.8961 55.5987 20.7067C55.2632 21.5173 54.733 22.2326 54.0549 22.7892C53.3769 23.3459 52.572 23.7267 51.7116 23.8979C50.8512 24.0691 49.9619 24.0254 49.1224 23.7707C48.2829 23.516 47.5192 23.0582 46.899 22.4378L42.0456 27.2938" stroke="white" stroke-width="2.17" stroke-linecap="round" stroke-linejoin="round"></path><path d="M15.743 49.5902C23.0328 56.88 31.475 60.2569 34.5992 57.1327C37.7234 54.0085 34.3465 45.5663 27.0567 38.2765C19.767 30.9867 11.3248 27.6098 8.20057 30.734C5.07637 33.8582 8.45325 42.3004 15.743 49.5902Z" stroke="white" stroke-width="2.17" stroke-linecap="round" stroke-linejoin="round"></path><path d="M20 42.667L22.6667 45.3337" stroke="white" stroke-width="2.17" stroke-linecap="round" stroke-linejoin="round"></path><path d="M34.6005 57.1332C45.0138 46.7172 47.5471 32.3653 40.2565 25.0773C32.9685 17.7866 18.6165 20.3199 8.20312 30.7332" stroke="white" stroke-width="2.17" stroke-linecap="round" stroke-linejoin="round"></path></g><defs><clipPath id="clip0_3295_2541"><rect width="64" height="64" fill="white"></rect></clipPath></defs></svg> 