<?xml version="1.0" encoding="UTF-8"?> <svg xmlns="http://www.w3.org/2000/svg" width="64" height="64" viewBox="0 0 64 64" fill="none"><g clip-path="url(#clip0_3295_2566)"><path d="M32 56C45.2548 56 56 45.2548 56 32C56 18.7452 45.2548 8 32 8C18.7452 8 8 18.7452 8 32C8 45.2548 18.7452 56 32 56Z" stroke="white" stroke-width="2.17" stroke-linecap="round" stroke-linejoin="round"></path><path d="M18.667 22.667L26.667 30.667" stroke="white" stroke-width="2.17" stroke-linecap="round" stroke-linejoin="round"></path><path d="M18.667 30.667L26.667 22.667" stroke="white" stroke-width="2.17" stroke-linecap="round" stroke-linejoin="round"></path><path d="M37.333 22.667L45.333 30.667" stroke="white" stroke-width="2.17" stroke-linecap="round" stroke-linejoin="round"></path><path d="M37.333 30.667L45.333 22.667" stroke="white" stroke-width="2.17" stroke-linecap="round" stroke-linejoin="round"></path><path d="M25.333 40C26.202 40.8869 27.2393 41.5915 28.384 42.0726C29.5288 42.5536 30.758 42.8014 31.9997 42.8014C33.2414 42.8014 34.4706 42.5536 35.6153 42.0726C36.7601 41.5915 37.7973 40.8869 38.6663 40" stroke="white" stroke-width="2.17" stroke-linecap="round" stroke-linejoin="round"></path></g><defs><clipPath id="clip0_3295_2566"><rect width="64" height="64" fill="white"></rect></clipPath></defs></svg> 