<?xml version="1.0" encoding="UTF-8"?> <svg xmlns="http://www.w3.org/2000/svg" width="60" height="60" viewBox="0 0 60 60" fill="none"><g clip-path="url(#clip0_2811_2626)"><path d="M17.5 17.5C20.2614 17.5 22.5 15.2614 22.5 12.5C22.5 9.73858 20.2614 7.5 17.5 7.5C14.7386 7.5 12.5 9.73858 12.5 12.5C12.5 15.2614 14.7386 17.5 17.5 17.5Z" stroke="white" stroke-width="2.5" stroke-linecap="round" stroke-linejoin="round"></path><path d="M12.5 55V42.5L10 40V30C10 29.337 10.2634 28.7011 10.7322 28.2322C11.2011 27.7634 11.837 27.5 12.5 27.5H22.5C23.163 27.5 23.7989 27.7634 24.2678 28.2322C24.7366 28.7011 25 29.337 25 30V40L22.5 42.5V55" stroke="white" stroke-width="2.5" stroke-linecap="round" stroke-linejoin="round"></path><path d="M42.5 17.5C45.2614 17.5 47.5 15.2614 47.5 12.5C47.5 9.73858 45.2614 7.5 42.5 7.5C39.7386 7.5 37.5 9.73858 37.5 12.5C37.5 15.2614 39.7386 17.5 42.5 17.5Z" stroke="white" stroke-width="2.5" stroke-linecap="round" stroke-linejoin="round"></path><path d="M37.5 55V45H32.5L37.5 30C37.5 29.337 37.7634 28.7011 38.2322 28.2322C38.7011 27.7634 39.337 27.5 40 27.5H45C45.663 27.5 46.2989 27.7634 46.7678 28.2322C47.2366 28.7011 47.5 29.337 47.5 30L52.5 45H47.5V55" stroke="white" stroke-width="2.5" stroke-linecap="round" stroke-linejoin="round"></path></g><defs><clipPath id="clip0_2811_2626"><rect width="60" height="60" fill="white"></rect></clipPath></defs></svg> 