<?xml version="1.0" encoding="UTF-8"?> <svg xmlns="http://www.w3.org/2000/svg" width="64" height="64" viewBox="0 0 64 64" fill="none"><g clip-path="url(#clip0_3295_2555)"><path d="M32 56C45.2548 56 56 45.2548 56 32C56 18.7452 45.2548 8 32 8C18.7452 8 8 18.7452 8 32C8 45.2548 18.7452 56 32 56Z" stroke="white" stroke-width="2.17" stroke-linecap="round" stroke-linejoin="round"></path><path d="M24 26.667H24.0267" stroke="white" stroke-width="2.17" stroke-linecap="round" stroke-linejoin="round"></path><path d="M40 26.667H40.0267" stroke="white" stroke-width="2.17" stroke-linecap="round" stroke-linejoin="round"></path><path d="M26.667 37.333V42.6663C26.667 44.0808 27.2289 45.4374 28.2291 46.4376C29.2293 47.4378 30.5858 47.9997 32.0003 47.9997C33.4148 47.9997 34.7714 47.4378 35.7716 46.4376C36.7718 45.4374 37.3337 44.0808 37.3337 42.6663V37.333M41.3337 37.333H22.667" stroke="white" stroke-width="2.17" stroke-linecap="round" stroke-linejoin="round"></path></g><defs><clipPath id="clip0_3295_2555"><rect width="64" height="64" fill="white"></rect></clipPath></defs></svg> 