<?xml version="1.0"?>
<svg xmlns="http://www.w3.org/2000/svg" version="1.1" width="512" height="512" x="0" y="0" viewBox="0 0 512 512" style="enable-background:new 0 0 512 512" xml:space="preserve" class=""><g><path xmlns="http://www.w3.org/2000/svg" d="m482.1 129.834a133.8 133.8 0 0 0 -106.292 6.472l-61.222 30.143-112.51-41.333a5.994 5.994 0 0 0 -5.187.506l-30.922 18.808a6 6 0 0 0 -.133 10.169l74.841 48.24-87.242 42.954-50.486-34.9a69.578 69.578 0 0 0 -65.3-7.47l-23.855 9.444a6 6 0 0 0 -1.572 10.237l93.165 75.635a70.493 70.493 0 0 0 44.315 16q1.01 0 2.021-.031a38.607 38.607 0 0 0 13.331-2.459l81.453-31.369-38.281 101.238a6 6 0 0 0 5.612 8.122h49.893a6 6 0 0 0 5.192-2.993l87.239-150.659 126.712-50.167a30.273 30.273 0 0 0 -.773-56.587zm-301.711 19.866 20.264-12.326 99.062 36.393-46.483 22.886zm79.881 228.54h-37.75l46.961-124.188 81.282-32.091zm218.184-202.976-112.6 44.579 3.93-6.786a6 6 0 0 0 -7.4-8.588l-99.785 39.4a6 6 0 0 0 -3.409 3.458l-7 18.506-91.509 35.241a26.843 26.843 0 0 1 -9.328 1.643 58.344 58.344 0 0 1 -38.415-13.286l-85.2-69.173 14.321-5.67a57.606 57.606 0 0 1 54.062 6.185l53.385 36.9a6 6 0 0 0 6.061.448l225.618-111.088a121.815 121.815 0 0 1 96.8-5.926 18.273 18.273 0 0 1 .467 34.157z" fill="#f76633" data-original="#000000" class=""/></g></svg>
